<svg width="23" height="20" viewBox="0 0 23 20" fill="none" xmlns="http://www.w3.org/2000/svg">
<path d="M14.8542 11.6667H14.0971L13.8287 11.4417C14.7679 10.4917 15.3333 9.25833 15.3333 7.91667C15.3333 4.925 12.5446 2.5 9.10417 2.5C5.66375 2.5 2.875 4.925 2.875 7.91667C2.875 10.9083 5.66375 13.3333 9.10417 13.3333C10.6471 13.3333 12.0654 12.8417 13.1579 12.025L13.4167 12.2583V12.9167L18.2083 17.075L19.6362 15.8333L14.8542 11.6667ZM9.10417 11.6667C6.71792 11.6667 4.79167 9.99167 4.79167 7.91667C4.79167 5.84167 6.71792 4.16667 9.10417 4.16667C11.4904 4.16667 13.4167 5.84167 13.4167 7.91667C13.4167 9.99167 11.4904 11.6667 9.10417 11.6667Z" fill="#FFBF47"/>
</svg>
